<svg width="629" height="395" viewBox="0 0 629 395" fill="none" xmlns="http://www.w3.org/2000/svg">
<path fill-rule="evenodd" clip-rule="evenodd" d="M238.134 168.331C238.573 168.331 238.574 167.648 238.134 167.648C237.695 167.648 237.694 168.331 238.134 168.331Z" fill="#B39978"/>
<path fill-rule="evenodd" clip-rule="evenodd" d="M378.882 154.137H559.922L628.961 381.091H378.882V154.137Z" fill="#CFB08A"/>
<path fill-rule="evenodd" clip-rule="evenodd" d="M378.882 381.099L146.377 381.09L104.344 338.535V33.8867H378.882V381.099Z" fill="#CFB08A"/>
<path fill-rule="evenodd" clip-rule="evenodd" d="M305.594 381.095H378.882V154.137H305.594V381.095Z" fill="#B39978"/>
<path fill-rule="evenodd" clip-rule="evenodd" d="M308.783 33.9347C305.108 33.9347 302.129 30.9573 302.129 27.284V19.9283C302.129 9.11459 293.358 0.347656 282.538 0.347656H195.169H175.24L181.096 17.8959C181.096 26.7357 182.784 33.9095 173.94 33.9347H195.169H282.538H318.13H308.783Z" fill="#CFB08A"/>
<path fill-rule="evenodd" clip-rule="evenodd" d="M104.344 331.438V33.8906H351.681V67.4777V331.438C351.681 358.864 329.436 381.098 301.995 381.098L146.376 381.093" fill="#0D42FA"/>
<path fill-rule="evenodd" clip-rule="evenodd" d="M168.898 33.9336C168.898 74.0714 201.453 106.61 241.613 106.61C281.772 106.61 314.327 74.0714 314.327 33.9336H168.898Z" fill="#A6E0FF"/>
<path fill-rule="evenodd" clip-rule="evenodd" d="M351.681 239.114C348.329 202.309 317.37 173.477 279.672 173.477C239.736 173.477 207.362 205.834 207.362 245.749C207.362 205.834 174.988 173.477 135.052 173.477C124.073 173.477 113.664 175.923 104.344 180.299V312.266C139.672 336.102 207.362 379.915 207.362 379.915C207.362 379.915 294.219 323.696 322.507 303.976C338.987 292.488 349.78 273.668 351.681 252.486V239.114Z" fill="#FC4F3D"/>
<path fill-rule="evenodd" clip-rule="evenodd" d="M378.882 186.714H542.09L550.811 154.137H378.882V186.714Z" fill="#0D42FA"/>
<path fill-rule="evenodd" clip-rule="evenodd" d="M602.409 381.091H481.772L550.811 154.137H559.922L628.961 381.091H602.409Z" fill="#FC4F3D"/>
<path fill-rule="evenodd" clip-rule="evenodd" d="M615.939 381.1C615.939 347.664 588.82 320.559 555.366 320.559C521.912 320.559 494.793 347.664 494.793 381.1H615.939Z" fill="#0D42FA"/>
<path fill-rule="evenodd" clip-rule="evenodd" d="M517.728 154.137V179.361C517.728 183.422 514.435 186.714 510.372 186.714C506.309 186.714 503.016 183.422 503.016 179.361V154.137" fill="#CFB08A"/>
<path fill-rule="evenodd" clip-rule="evenodd" d="M503.016 154.136V128.911C503.016 124.851 506.309 121.559 510.372 121.559C514.435 121.559 517.729 124.851 517.729 128.911V154.136" fill="#FC4F3D"/>
<path fill-rule="evenodd" clip-rule="evenodd" d="M318.131 33.9336C309.286 33.9589 302.129 41.1326 302.129 49.9724V58.1779C302.129 63.3376 297.944 67.5206 292.782 67.5206H282.538H195.169H190.444C185.282 67.5206 181.097 63.3376 181.097 58.1779V49.9724C181.097 41.1326 173.94 33.9589 165.095 33.9336H195.169H282.538H318.131Z" fill="#FC4F3D"/>
<path fill-rule="evenodd" clip-rule="evenodd" d="M257.404 144.533H314.228C319.254 144.533 323.328 140.462 323.328 135.439C323.328 130.415 319.254 126.344 314.228 126.344H257.404C252.379 126.344 248.305 130.415 248.305 135.439C248.305 140.462 252.379 144.533 257.404 144.533Z" fill="#B39978"/>
<path d="M97.6826 181.785V306.105C97.6826 351.432 134.447 388.176 179.797 388.176H479.028C497.051 388.176 515.148 381.074 525.889 366.608C537.529 350.933 567.997 297.149 567.997 297.149" stroke="#A6E0FF" stroke-width="23.776"/>
<path fill-rule="evenodd" clip-rule="evenodd" d="M587.863 291.984C587.863 307.765 575.064 320.558 559.274 320.558C543.485 320.558 530.686 307.765 530.686 291.984C530.686 276.203 543.485 263.41 559.274 263.41C575.064 263.41 587.863 276.203 587.863 291.984Z" fill="#CFB08A"/>
<path fill-rule="evenodd" clip-rule="evenodd" d="M96.1251 188.608C84.5257 188.608 73.2697 186.335 62.6692 181.854C52.4346 177.528 43.2438 171.335 35.3528 163.448C27.4619 155.562 21.2661 146.376 16.9372 136.146C12.4538 125.552 10.1802 114.302 10.1802 102.708V16.7695H23.8378V102.708C23.8378 122.007 31.3571 140.15 45.0101 153.796C58.6637 167.442 76.8163 174.957 96.1251 174.957C115.434 174.957 133.587 167.442 147.24 153.796C160.893 140.15 168.412 122.007 168.412 102.708V16.7695H182.07V102.708C182.07 114.302 179.797 125.552 175.313 136.146C170.984 146.376 164.788 155.562 156.897 163.448C149.007 171.335 139.816 177.528 129.58 181.854C118.981 186.335 107.725 188.608 96.1251 188.608Z" fill="#B39978"/>
<path fill-rule="evenodd" clip-rule="evenodd" d="M192.02 16.7703C192.02 26.0321 184.508 33.5406 175.241 33.5406C165.974 33.5406 158.461 26.0321 158.461 16.7703C158.461 7.50844 165.974 0 175.241 0C184.508 0 192.02 7.50844 192.02 16.7703Z" fill="#FC4F3D"/>
<path fill-rule="evenodd" clip-rule="evenodd" d="M33.7902 16.7703C33.7902 26.0321 26.2778 33.5406 17.0111 33.5406C7.74383 33.5406 0.231445 26.0321 0.231445 16.7703C0.231445 7.50845 7.74383 0 17.0111 0C26.2778 0 33.7902 7.50845 33.7902 16.7703Z" fill="#FC4F3D"/>
<path fill-rule="evenodd" clip-rule="evenodd" d="M448.326 216.902H489.686C492.223 216.902 494.036 219.357 493.287 221.781L455.139 345.351C454.134 348.607 451.123 350.828 447.715 350.828H378.882V216.902H448.326Z" fill="#A6E0FF"/>
<path d="M403.313 315.628L414.028 325.471C417.358 328.53 422.548 328.272 425.558 324.899L444.077 304.141" stroke="#FC4F3D" stroke-width="23.776" stroke-linecap="round" stroke-linejoin="round"/>
</svg>
